<mxfile host="app.diagrams.net" modified="2022-10-27T13:15:43.892Z" agent="5.0 (Windows NT 10.0; Win64; x64) AppleWebKit/537.36 (KHTML, like Gecko) Chrome/106.0.0.0 Safari/537.36" etag="oXOF4I3bQmZQRE7QEidQ" version="20.5.1" type="github">
  <diagram id="wYxCZR2anh_r0sdgWP1-" name="Page-1">
    <mxGraphModel dx="2222" dy="1010" grid="1" gridSize="10" guides="1" tooltips="1" connect="1" arrows="1" fold="1" page="1" pageScale="1" pageWidth="850" pageHeight="1100" math="0" shadow="0">
      <root>
        <mxCell id="0" />
        <mxCell id="1" parent="0" />
        <mxCell id="TaKTOSv6qZX-BPgqEJur-4" value="" style="rounded=1;arcSize=10;dashed=1;fillColor=none;gradientColor=none;dashPattern=1 1;strokeWidth=2;" vertex="1" parent="1">
          <mxGeometry x="211" y="150" width="299" height="240" as="geometry" />
        </mxCell>
        <mxCell id="TaKTOSv6qZX-BPgqEJur-5" value="" style="rounded=1;arcSize=10;dashed=1;fillColor=none;gradientColor=none;dashPattern=1 1;strokeWidth=2;" vertex="1" parent="1">
          <mxGeometry x="211" y="460" width="309" height="270" as="geometry" />
        </mxCell>
        <mxCell id="TaKTOSv6qZX-BPgqEJur-6" value="" style="outlineConnect=0;dashed=0;verticalLabelPosition=bottom;verticalAlign=top;align=center;html=1;shape=mxgraph.aws3.classic_load_balancer;fillColor=#F58536;gradientColor=none;" vertex="1" parent="1">
          <mxGeometry x="250" y="236.25" width="69" height="72" as="geometry" />
        </mxCell>
        <mxCell id="TaKTOSv6qZX-BPgqEJur-7" value="" style="outlineConnect=0;dashed=0;verticalLabelPosition=bottom;verticalAlign=top;align=center;html=1;shape=mxgraph.aws3.classic_load_balancer;fillColor=#F58536;gradientColor=none;" vertex="1" parent="1">
          <mxGeometry x="250" y="559" width="69" height="72" as="geometry" />
        </mxCell>
        <mxCell id="TaKTOSv6qZX-BPgqEJur-8" value="" style="outlineConnect=0;dashed=0;verticalLabelPosition=bottom;verticalAlign=top;align=center;html=1;shape=mxgraph.aws3.ecs;fillColor=#F58534;gradientColor=none;" vertex="1" parent="1">
          <mxGeometry x="389" y="236.25" width="72" height="67.5" as="geometry" />
        </mxCell>
        <mxCell id="TaKTOSv6qZX-BPgqEJur-9" value="" style="outlineConnect=0;dashed=0;verticalLabelPosition=bottom;verticalAlign=top;align=center;html=1;shape=mxgraph.aws3.ecs;fillColor=#F58534;gradientColor=none;" vertex="1" parent="1">
          <mxGeometry x="389" y="559" width="72" height="67.5" as="geometry" />
        </mxCell>
        <mxCell id="TaKTOSv6qZX-BPgqEJur-10" value="" style="sketch=0;points=[[0,0,0],[0.25,0,0],[0.5,0,0],[0.75,0,0],[1,0,0],[0,1,0],[0.25,1,0],[0.5,1,0],[0.75,1,0],[1,1,0],[0,0.25,0],[0,0.5,0],[0,0.75,0],[1,0.25,0],[1,0.5,0],[1,0.75,0]];outlineConnect=0;fontColor=#232F3E;gradientColor=#945DF2;gradientDirection=north;fillColor=#5A30B5;strokeColor=#ffffff;dashed=0;verticalLabelPosition=bottom;verticalAlign=top;align=center;html=1;fontSize=12;fontStyle=0;aspect=fixed;shape=mxgraph.aws4.resourceIcon;resIcon=mxgraph.aws4.global_accelerator;" vertex="1" parent="1">
          <mxGeometry x="-260" y="350" width="141" height="141" as="geometry" />
        </mxCell>
        <mxCell id="TaKTOSv6qZX-BPgqEJur-11" value="Users" style="sketch=0;outlineConnect=0;fontColor=#232F3E;gradientColor=none;strokeColor=#232F3E;fillColor=#ffffff;dashed=0;verticalLabelPosition=bottom;verticalAlign=top;align=center;html=1;fontSize=12;fontStyle=0;aspect=fixed;shape=mxgraph.aws4.resourceIcon;resIcon=mxgraph.aws4.users;" vertex="1" parent="1">
          <mxGeometry x="-700" y="350" width="160" height="160" as="geometry" />
        </mxCell>
      </root>
    </mxGraphModel>
  </diagram>
</mxfile>
